# xmcd
#
# Track frame offsets:
#	150
#	14008
#	34660
#	59483
#	80070
#	98220
#	118000
#	138725
#	151870
#
# Disc length: 2200 seconds
#
# Revision: 0
# Processed by: cddbd v1.4PL0 Copyright (c) Steve Scherf et al.
# Submitted via: dBpowerAMP V4.0
#
DISCID=79089609
DTITLE=Mitch Ryder - Got change for a million ?
DYEAR=1900
DGENRE=Blues
TTITLE0=My Heart belongs to me
TTITLE1=Back at work
TTITLE2=Thats Charme
TTITLE3=Red scar Eyes
TTITLE4=Bang Bang
TTITLE5=Betty´s too Tight
TTITLE6=Ich bin aus America
TTITLE7=Bare Your Soul
TTITLE8=We´re gonna win
EXTD=
EXTT0=
EXTT1=
EXTT2=
EXTT3=
EXTT4=
EXTT5=
EXTT6=
EXTT7=
EXTT8=
PLAYORDER=
